<svg xmlns="http://www.w3.org/2000/svg" xmlns:xlink="http://www.w3.org/1999/xlink" width="500" zoomAndPan="magnify" viewBox="0 0 375 374.999991" height="500" preserveAspectRatio="xMidYMid meet" version="1.0"><defs><g/><clipPath id="a8672e0039"><path d="M 206 60.394531 L 220 60.394531 L 220 73 L 206 73 Z M 206 60.394531 " clip-rule="nonzero"/></clipPath><clipPath id="5ed82716a7"><path d="M 97.1875 109 L 277.9375 109 L 277.9375 188.644531 L 97.1875 188.644531 Z M 97.1875 109 " clip-rule="nonzero"/></clipPath></defs><path fill="#3035b4" d="M 243.140625 83.332031 L 245.246094 68.886719 L 245.476562 68.886719 L 245.667969 70.089844 C 246.164062 73.3125 246.671875 76.53125 247.140625 79.742188 C 247.269531 80.589844 247.277344 81.453125 247.351562 82.320312 C 247.425781 83.183594 247.488281 83.339844 248.445312 83.46875 L 261.597656 85.261719 C 261.789062 85.320312 261.972656 85.382812 262.15625 85.457031 C 261.714844 85.558594 261.476562 85.621094 261.238281 85.660156 C 257.996094 86.15625 254.742188 86.644531 251.480469 87.121094 C 250.433594 87.269531 249.375 87.371094 248.328125 87.5 C 247.480469 87.601562 247.472656 87.628906 247.351562 88.492188 C 246.738281 92.847656 246.144531 97.195312 245.566406 101.53125 C 245.550781 101.671875 245.484375 101.785156 245.375 101.871094 C 244.839844 99.535156 244.539062 97.160156 244.179688 94.804688 C 243.820312 92.449219 243.507812 90.074219 243.175781 87.675781 L 228.933594 85.59375 C 230.414062 84.914062 232.011719 84.941406 233.53125 84.675781 C 235.046875 84.40625 236.703125 84.167969 238.285156 83.949219 C 239.867188 83.726562 241.496094 83.535156 243.140625 83.332031 Z M 243.140625 83.332031 " fill-opacity="1" fill-rule="nonzero"/><path fill="#3035b4" d="M 146.398438 120.605469 L 147.179688 115.25 L 147.261719 115.25 C 147.261719 115.398438 147.261719 115.546875 147.335938 115.703125 C 147.519531 116.886719 147.703125 118.085938 147.878906 119.273438 C 147.921875 119.59375 147.933594 119.914062 147.960938 120.191406 C 147.988281 120.46875 147.960938 120.578125 148.363281 120.625 L 153.238281 121.285156 L 153.449219 121.359375 L 153.109375 121.433594 L 149.488281 121.976562 C 149.101562 122.03125 148.714844 122.070312 148.320312 122.113281 C 147.921875 122.160156 147.996094 122.113281 147.960938 122.484375 L 147.296875 127.324219 C 147.285156 127.371094 147.261719 127.410156 147.226562 127.441406 C 147.023438 126.578125 146.910156 125.695312 146.785156 124.820312 C 146.65625 123.945312 146.535156 123.097656 146.40625 122.179688 L 141.128906 121.40625 C 141.683594 121.222656 142.253906 121.105469 142.839844 121.058594 C 143.425781 120.945312 144.015625 120.871094 144.605469 120.789062 C 145.191406 120.707031 145.78125 120.679688 146.398438 120.605469 Z M 146.398438 120.605469 " fill-opacity="1" fill-rule="nonzero"/><g clip-path="url(#a8672e0039)"><path fill="#3035b4" d="M 212.140625 65.886719 L 212.957031 60.53125 L 213.058594 60.53125 C 213.058594 60.675781 213.113281 60.832031 213.132812 60.980469 C 213.316406 62.175781 213.5 63.363281 213.675781 64.558594 C 213.675781 64.875 213.730469 65.195312 213.757812 65.480469 C 213.785156 65.765625 213.8125 65.859375 214.164062 65.902344 L 219.039062 66.566406 L 219.25 66.640625 C 219.136719 66.671875 219.023438 66.695312 218.910156 66.714844 L 215.285156 67.257812 C 214.898438 67.3125 214.511719 67.347656 214.117188 67.394531 C 213.722656 67.441406 213.804688 67.449219 213.757812 67.773438 L 213.058594 72.640625 C 213.050781 72.691406 213.027344 72.734375 212.984375 72.769531 C 212.785156 71.902344 212.683594 71.019531 212.542969 70.144531 C 212.40625 69.273438 212.296875 68.386719 212.175781 67.503906 L 206.890625 66.730469 C 207.445312 66.539062 208.015625 66.421875 208.601562 66.382812 C 209.1875 66.261719 209.777344 66.1875 210.367188 66.105469 C 210.953125 66.023438 211.5625 65.960938 212.140625 65.886719 Z M 212.140625 65.886719 " fill-opacity="1" fill-rule="nonzero"/></g><path fill="#3035b4" d="M 217.558594 83.007812 C 217.558594 83.339844 217.558594 83.664062 217.558594 83.976562 C 217.472656 85.742188 217.328125 87.507812 217.28125 89.273438 C 217.199219 92.402344 217.1875 95.523438 217.117188 98.640625 C 217.09375 99.238281 217 99.824219 216.832031 100.398438 C 216.589844 101.253906 216.132812 101.585938 215.460938 101.550781 C 215.109375 101.496094 214.808594 101.34375 214.558594 101.089844 C 214.304688 100.835938 214.15625 100.53125 214.109375 100.179688 C 214.085938 99.996094 214.085938 99.816406 214.109375 99.636719 C 214.097656 97.960938 213.832031 96.332031 213.300781 94.746094 C 212.769531 93.160156 212.007812 91.695312 211.007812 90.351562 C 209.410156 87.957031 207.339844 86.085938 204.792969 84.738281 C 203.277344 83.9375 201.679688 83.363281 200 83.007812 C 197.71875 82.519531 195.414062 82.347656 193.085938 82.484375 C 191.328125 82.539062 189.617188 82.835938 187.945312 83.382812 C 186.273438 83.925781 184.714844 84.695312 183.265625 85.6875 C 181.742188 86.738281 180.492188 88.054688 179.515625 89.625 C 178.539062 91.199219 177.917969 92.898438 177.644531 94.730469 C 177.222656 97.390625 177.457031 99.992188 178.34375 102.535156 C 178.84375 103.824219 179.503906 105.023438 180.332031 106.132812 C 182.105469 108.609375 184.160156 110.824219 186.5 112.777344 L 187.15625 113.335938 C 187.089844 113.761719 186.796875 113.789062 186.492188 113.878906 C 184.164062 114.550781 170.140625 119.1875 169.507812 119.457031 C 169.046875 119.65625 168.585938 119.796875 168.007812 120 C 167.722656 119.546875 167.429688 119.144531 167.191406 118.710938 C 166.117188 116.84375 165.25 114.886719 164.578125 112.839844 C 164.03125 111.03125 163.640625 109.191406 163.410156 107.320312 C 163.121094 105.109375 163.054688 102.898438 163.207031 100.675781 C 163.433594 97.507812 164.242188 94.496094 165.636719 91.640625 C 167.242188 88.4375 169.429688 85.703125 172.203125 83.433594 C 174.5625 81.445312 177.179688 79.890625 180.054688 78.765625 C 181.644531 78.160156 183.265625 77.617188 184.890625 77.128906 C 186.027344 76.8125 187.175781 76.570312 188.339844 76.402344 C 191.5 75.875 194.683594 75.648438 197.886719 75.722656 C 200.433594 75.832031 202.988281 76.054688 205.539062 76.292969 C 207.277344 76.46875 209.003906 76.722656 210.722656 77.011719 C 212.714844 77.3125 214.671875 77.773438 216.589844 78.390625 C 217.511719 78.703125 218.089844 79.308594 217.75 80.800781 " fill-opacity="1" fill-rule="nonzero"/><g clip-path="url(#5ed82716a7)"><path fill="#3035b4" d="M 277.3125 123.699219 C 276.632812 121.46875 275.429688 119.578125 273.699219 118.019531 C 272.683594 117.078125 271.574219 116.261719 270.378906 115.5625 C 268.855469 114.679688 267.273438 113.914062 265.632812 113.261719 C 264.09375 112.6875 262.527344 112.199219 260.933594 111.800781 C 259.839844 111.503906 258.710938 111.3125 257.597656 111.074219 C 256.675781 110.878906 255.757812 110.640625 254.78125 110.519531 C 253.257812 110.328125 251.730469 110.21875 250.183594 110.078125 C 250.039062 110.078125 249.890625 110.023438 249.734375 110.015625 C 248.402344 109.933594 247.058594 109.839844 245.714844 109.765625 C 245.578125 109.765625 245.429688 109.847656 245.273438 109.859375 C 244.914062 109.878906 244.554688 109.878906 244.199219 109.859375 C 243.695312 109.785156 243.1875 109.75 242.679688 109.757812 C 241.691406 109.835938 240.699219 109.835938 239.710938 109.757812 C 236.03125 109.589844 232.417969 109.996094 228.777344 110.179688 C 228.503906 110.207031 228.234375 110.246094 227.964844 110.300781 L 226.449219 110.484375 C 225.070312 110.632812 223.691406 110.761719 222.320312 110.917969 C 221.402344 111.019531 220.535156 111.15625 219.644531 111.292969 C 218.484375 111.46875 217.328125 111.671875 216.167969 111.855469 C 215.25 112.003906 214.328125 112.09375 213.410156 112.269531 C 211.910156 112.554688 210.421875 112.886719 208.914062 113.191406 C 207.402344 113.492188 206.152344 113.695312 204.753906 113.960938 C 204.140625 114.082031 203.53125 114.230469 202.917969 114.367188 L 199.054688 115.289062 C 197.976562 115.546875 196.902344 115.8125 195.828125 116.097656 C 194.75 116.382812 193.636719 116.6875 192.535156 117.015625 C 191.429688 117.347656 190.4375 117.53125 189.398438 117.828125 C 188.046875 118.203125 186.703125 118.628906 185.351562 119.03125 L 181.214844 120.246094 L 179.871094 120.644531 C 175.71875 121.777344 171.648438 123.152344 167.660156 124.765625 C 167.003906 124.996094 166.351562 125.242188 165.707031 125.484375 C 165.625 125.511719 165.546875 125.554688 165.480469 125.613281 L 164.035156 126.191406 L 163.90625 126.191406 L 161.324219 127.238281 C 161.328125 127.222656 161.328125 127.203125 161.324219 127.183594 C 160.652344 127.433594 160.054688 127.636719 159.484375 127.894531 L 152.972656 130.746094 C 149.605469 132.179688 147.351562 133.222656 147.351562 133.222656 L 147.269531 133.304688 L 146.351562 133.707031 C 141.753906 135.824219 137.15625 138.152344 132.730469 140.628906 C 128.894531 142.761719 125.089844 144.957031 121.320312 147.207031 C 119.085938 148.53125 116.90625 149.96875 114.761719 151.449219 C 112.199219 153.214844 109.675781 155.035156 107.183594 156.90625 C 104.910156 158.652344 102.761719 160.546875 100.746094 162.589844 C 99.527344 163.832031 98.425781 165.167969 97.445312 166.601562 C 97.347656 166.777344 97.265625 166.960938 97.207031 167.15625 C 97.355469 167.15625 97.425781 167.15625 97.464844 167.15625 C 101.253906 164.707031 105.160156 162.460938 109.144531 160.363281 C 112.179688 158.765625 115.214844 157.179688 118.273438 155.664062 C 121.335938 154.144531 124.289062 152.753906 127.316406 151.320312 C 129.253906 150.398438 131.214844 149.535156 133.15625 148.625 L 145.429688 143.230469 L 147.4375 142.3125 L 148.6875 141.859375 L 148.863281 141.796875 L 169.09375 134.289062 L 169.324219 134.214844 C 170.867188 133.71875 172.402344 133.234375 173.921875 132.769531 C 174.980469 132.449219 176.054688 132.199219 177.09375 131.851562 C 177.3125 131.75 177.542969 131.722656 177.78125 131.765625 C 178.015625 131.808594 178.222656 131.917969 178.390625 132.089844 C 180.449219 133.835938 182.511719 135.578125 184.625 137.261719 C 187.109375 139.246094 189.644531 141.160156 192.148438 143.121094 C 194.636719 145.039062 196.914062 147.1875 198.972656 149.5625 C 200.789062 151.574219 202.261719 153.8125 203.386719 156.28125 C 203.863281 157.398438 204.257812 158.550781 204.5625 159.730469 C 204.820312 160.769531 204.855469 161.855469 205.011719 162.921875 C 205.382812 165.652344 205.027344 168.28125 203.9375 170.808594 C 203.199219 172.578125 202.179688 174.164062 200.882812 175.574219 C 199.585938 176.984375 198.085938 178.132812 196.386719 179.015625 C 194.902344 179.816406 193.339844 180.414062 191.695312 180.800781 C 190.59375 181.066406 189.425781 181.078125 188.3125 181.316406 C 186.042969 181.792969 183.789062 181.410156 181.5625 181.132812 C 179.957031 180.867188 178.398438 180.441406 176.882812 179.851562 C 175.171875 179.242188 173.597656 178.386719 172.152344 177.289062 C 170.710938 176.1875 169.464844 174.898438 168.421875 173.414062 C 166.597656 170.804688 165.375 167.9375 164.742188 164.816406 C 164.230469 162.894531 163.980469 160.9375 163.988281 158.949219 C 163.988281 158.675781 163.933594 158.417969 163.832031 158.164062 C 163.75 157.886719 163.589844 157.660156 163.355469 157.488281 C 163.117188 157.320312 162.855469 157.238281 162.5625 157.246094 C 162.261719 157.230469 161.988281 157.308594 161.738281 157.480469 C 161.488281 157.652344 161.316406 157.878906 161.222656 158.164062 C 161.003906 158.597656 160.863281 159.050781 160.789062 159.527344 C 160.625 160.835938 160.476562 162.148438 160.421875 163.464844 C 160.339844 165.535156 160.191406 167.605469 160.109375 169.667969 C 159.925781 173.769531 160.015625 177.894531 160.015625 182.007812 C 160.042969 182.273438 160.105469 182.53125 160.210938 182.78125 C 160.425781 183.296875 160.742188 183.742188 161.164062 184.117188 C 161.582031 184.488281 162.0625 184.75 162.601562 184.90625 C 163.667969 185.363281 164.753906 185.824219 165.847656 186.183594 C 167.054688 186.613281 168.277344 186.976562 169.523438 187.269531 C 170.988281 187.589844 172.476562 187.820312 173.96875 188.003906 C 175.933594 188.253906 177.914062 188.492188 179.890625 188.574219 C 182.179688 188.675781 184.488281 188.574219 186.769531 188.574219 C 187.402344 188.589844 188.039062 188.5625 188.671875 188.503906 C 190.039062 188.335938 191.410156 188.144531 192.78125 187.921875 C 194.0625 187.746094 195.328125 187.503906 196.582031 187.1875 C 198.207031 186.726562 199.816406 186.15625 201.390625 185.539062 C 205.375 183.976562 208.894531 181.6875 211.9375 178.675781 C 214.449219 176.21875 216.425781 173.386719 217.871094 170.183594 C 218.746094 168.28125 219.359375 166.296875 219.707031 164.230469 C 219.972656 163.0625 220.171875 161.886719 220.304688 160.695312 C 220.640625 156.660156 220.335938 152.671875 219.386719 148.734375 C 218.878906 146.5625 218.164062 144.457031 217.242188 142.421875 C 215.894531 139.730469 214.253906 137.230469 212.324219 134.921875 C 210.359375 132.570312 208.238281 130.363281 205.960938 128.308594 C 205.214844 127.625 204.5 126.910156 203.761719 126.210938 C 203.761719 126.136719 203.828125 126.070312 203.855469 125.996094 C 205.179688 125.777344 206.503906 125.511719 207.828125 125.34375 C 209.953125 125.070312 212.074219 124.855469 214.191406 124.609375 L 214.558594 124.609375 C 216.011719 124.40625 217.464844 124.183594 218.925781 124.011719 C 220.175781 123.863281 221.445312 123.761719 222.707031 123.6875 C 224.75 123.550781 226.789062 123.421875 228.839844 123.347656 C 230.550781 123.292969 232.269531 123.347656 233.980469 123.292969 C 237.402344 123.171875 240.796875 123.496094 244.199219 123.679688 C 244.378906 123.683594 244.5625 123.703125 244.742188 123.734375 L 248.28125 124.332031 C 249.136719 124.480469 250.011719 124.535156 250.847656 124.753906 C 252.300781 125.113281 253.734375 125.546875 255.140625 126.0625 C 256.933594 126.65625 258.464844 127.648438 259.738281 129.042969 C 260.539062 129.945312 260.953125 130.996094 260.988281 132.199219 C 261.140625 134.042969 260.902344 135.832031 260.28125 137.574219 C 259.867188 138.722656 259.394531 139.84375 258.855469 140.941406 C 257.644531 143.121094 256.183594 145.113281 254.46875 146.921875 C 252.023438 149.53125 249.367188 151.90625 246.507812 154.050781 C 243.800781 156.09375 240.980469 157.964844 238.046875 159.65625 C 234.671875 161.578125 231.242188 163.402344 227.828125 165.269531 L 227.011719 165.710938 C 227.167969 165.839844 227.339844 165.871094 227.535156 165.8125 L 231.324219 164.21875 C 234.257812 162.960938 237.226562 161.78125 240.113281 160.429688 C 243.628906 158.773438 247.09375 157.015625 250.535156 155.203125 C 254.546875 153.128906 258.398438 150.785156 262.085938 148.171875 C 263.785156 146.957031 265.503906 145.734375 267.105469 144.382812 C 268.921875 142.945312 270.582031 141.347656 272.089844 139.589844 C 273.136719 138.28125 274.289062 137.046875 275.207031 135.648438 C 276.246094 134.199219 276.945312 132.597656 277.304688 130.847656 C 277.480469 129.824219 277.808594 128.8125 277.902344 127.78125 C 277.976562 126.382812 277.78125 125.019531 277.3125 123.699219 Z M 277.3125 123.699219 " fill-opacity="1" fill-rule="nonzero"/></g><g fill="#332766" fill-opacity="1"><g transform="translate(74.646818, 257.952248)"><g><path d="M 24.8125 0.851562 C 34.925781 0.851562 47.074219 -3.484375 47.074219 -17.675781 C 47.074219 -30.082031 37.898438 -32.882812 29.484375 -34.753906 C 22.859375 -36.199219 16.824219 -36.878906 16.824219 -42.402344 C 16.824219 -46.308594 19.796875 -48.265625 24.300781 -48.265625 C 28.550781 -48.265625 31.863281 -46.566406 32.800781 -41.808594 C 32.96875 -40.703125 33.566406 -40.191406 34.585938 -40.191406 L 43.761719 -40.191406 C 44.867188 -40.191406 45.460938 -40.789062 45.375 -41.976562 C 44.441406 -53.789062 34.246094 -58.632812 24.558594 -58.632812 C 14.445312 -58.632812 4.078125 -53.195312 4.078125 -40.617188 C 4.078125 -30.082031 11.386719 -27.023438 18.269531 -25.152344 C 26.171875 -23.027344 34.328125 -22.6875 34.328125 -15.804688 C 34.328125 -11.046875 30.335938 -9.515625 26.085938 -9.515625 C 20.5625 -9.515625 16.398438 -12.152344 15.636719 -17.417969 C 15.550781 -18.4375 14.957031 -19.035156 13.9375 -19.035156 L 3.992188 -19.035156 C 2.890625 -19.035156 2.292969 -18.4375 2.292969 -17.335938 C 2.972656 -4.417969 13.679688 0.851562 24.8125 0.851562 Z M 24.8125 0.851562 "/></g></g></g><g fill="#332766" fill-opacity="1"><g transform="translate(124.356296, 257.952248)"><g><path d="M 36.15625 -31.398438 C 32.84375 -36.027344 27.574219 -38.832031 21.160156 -38.832031 C 10.113281 -38.832031 2.464844 -30.589844 2.464844 -18.777344 C 2.464844 -6.882812 10.113281 1.359375 21.160156 1.359375 C 27.574219 1.359375 32.84375 -1.445312 36.15625 -6.117188 C 38.238281 -1.953125 41.808594 0.339844 46.734375 0.851562 L 46.734375 -38.324219 C 41.808594 -37.8125 38.238281 -35.519531 36.15625 -31.398438 Z M 25.066406 -8.835938 C 19.882812 -8.835938 16.144531 -12.914062 16.144531 -18.695312 C 16.144531 -24.472656 19.882812 -28.550781 25.066406 -28.550781 C 30.25 -28.550781 33.988281 -24.472656 33.988281 -18.695312 C 33.988281 -12.914062 30.25 -8.835938 25.066406 -8.835938 Z M 25.066406 -8.835938 "/></g></g></g><g fill="#332766" fill-opacity="1"><g transform="translate(175.255416, 257.952248)"><g><path d="M 20.902344 -37.472656 L 20.902344 -53.617188 C 12.660156 -51.917969 8.15625 -46.226562 8.15625 -37.472656 L 2.71875 -37.472656 C 1.613281 -37.472656 1.019531 -36.878906 1.019531 -35.773438 L 1.019531 -29.316406 C 1.019531 -28.210938 1.613281 -27.617188 2.71875 -27.617188 L 8.15625 -27.617188 L 8.15625 -1.699219 C 8.15625 -0.59375 8.753906 0 9.855469 0 L 19.203125 0 C 20.308594 0 20.902344 -0.59375 20.902344 -1.699219 L 20.902344 -27.617188 L 26.425781 -27.617188 C 27.53125 -27.617188 28.125 -28.210938 28.125 -29.316406 L 28.125 -35.773438 C 28.125 -36.878906 27.53125 -37.472656 26.425781 -37.472656 Z M 20.902344 -37.472656 "/></g></g></g><g fill="#332766" fill-opacity="1"><g transform="translate(204.401325, 257.952248)"><g><path d="M 8.242188 21.242188 C 17.335938 21.242188 23.027344 16.996094 26.597656 7.816406 L 44.355469 -38.324219 C 35.605469 -38.324219 29.824219 -33.988281 26.683594 -24.558594 L 22.09375 -10.707031 L 13.765625 -36.113281 C 13.425781 -37.046875 12.746094 -37.472656 11.8125 -37.472656 L 2.464844 -37.472656 C 1.191406 -37.472656 0.679688 -36.707031 1.105469 -35.519531 L 15.636719 2.71875 Z M 8.242188 21.242188 "/></g></g></g><g fill="#332766" fill-opacity="1"><g transform="translate(249.437275, 257.952248)"><g><path d="M 36.15625 -31.398438 C 32.84375 -36.027344 27.574219 -38.832031 21.160156 -38.832031 C 10.113281 -38.832031 2.464844 -30.589844 2.464844 -18.777344 C 2.464844 -6.882812 10.113281 1.359375 21.160156 1.359375 C 27.574219 1.359375 32.84375 -1.445312 36.15625 -6.117188 C 38.238281 -1.953125 41.808594 0.339844 46.734375 0.851562 L 46.734375 -38.324219 C 41.808594 -37.8125 38.238281 -35.519531 36.15625 -31.398438 Z M 25.066406 -8.835938 C 19.882812 -8.835938 16.144531 -12.914062 16.144531 -18.695312 C 16.144531 -24.472656 19.882812 -28.550781 25.066406 -28.550781 C 30.25 -28.550781 33.988281 -24.472656 33.988281 -18.695312 C 33.988281 -12.914062 30.25 -8.835938 25.066406 -8.835938 Z M 25.066406 -8.835938 "/></g></g></g><g fill="#332766" fill-opacity="1"><g transform="translate(187.486128, 291.809148)"><g/></g></g><g fill="#332766" fill-opacity="1"><g transform="translate(133.061481, 309.919256)"><g><path d="M 6.421875 -11.0625 L 10.890625 0 L 8.171875 0 L 7.359375 -2.21875 L 3.15625 -2.21875 L 2.328125 0 L -0.375 0 L 4.09375 -11.0625 Z M 6.5 -4.421875 L 5.265625 -7.640625 L 5.234375 -7.640625 L 4.015625 -4.421875 Z M 6.5 -4.421875 "/></g></g></g><g fill="#332766" fill-opacity="1"><g transform="translate(143.574619, 309.919256)"><g/></g></g><g fill="#332766" fill-opacity="1"><g transform="translate(147.235441, 309.919256)"><g><path d="M 3.328125 -11.0625 L 3.328125 -2.21875 L 7.125 -2.21875 L 7.125 0 L 0.796875 0 L 0.796875 -11.0625 Z M 3.328125 -11.0625 "/></g></g></g><g fill="#332766" fill-opacity="1"><g transform="translate(154.81187, 309.919256)"><g><path d="M 1.03125 -10.703125 C 1.3125 -10.984375 1.640625 -11.125 2.015625 -11.125 C 2.398438 -11.125 2.734375 -10.984375 3.015625 -10.703125 C 3.296875 -10.429688 3.4375 -10.101562 3.4375 -9.71875 C 3.4375 -9.332031 3.296875 -9 3.015625 -8.71875 C 2.734375 -8.445312 2.398438 -8.3125 2.015625 -8.3125 C 1.640625 -8.3125 1.3125 -8.445312 1.03125 -8.71875 C 0.75 -9 0.609375 -9.332031 0.609375 -9.71875 C 0.609375 -10.101562 0.75 -10.429688 1.03125 -10.703125 Z M 0.796875 -6.875 L 0.796875 0 L 3.171875 0 L 3.171875 -6.875 Z M 0.796875 -6.875 "/></g></g></g><g fill="#332766" fill-opacity="1"><g transform="translate(158.861578, 309.919256)"><g><path d="M 1.203125 -6.875 L 1.203125 -9.4375 L 3.578125 -9.4375 L 3.578125 -6.875 L 5.03125 -6.875 L 5.03125 -5.0625 L 3.578125 -5.0625 L 3.578125 -2.875 C 3.578125 -2.25 3.753906 -1.9375 4.109375 -1.9375 C 4.203125 -1.9375 4.296875 -1.953125 4.390625 -1.984375 C 4.492188 -2.015625 4.570312 -2.050781 4.625 -2.09375 L 4.703125 -2.140625 L 5.296875 -0.234375 C 4.785156 0.0546875 4.203125 0.203125 3.546875 0.203125 C 3.097656 0.203125 2.710938 0.125 2.390625 -0.03125 C 2.078125 -0.1875 1.835938 -0.394531 1.671875 -0.65625 C 1.503906 -0.925781 1.382812 -1.207031 1.3125 -1.5 C 1.238281 -1.789062 1.203125 -2.097656 1.203125 -2.421875 L 1.203125 -5.0625 L 0.21875 -5.0625 L 0.21875 -6.875 Z M 1.203125 -6.875 "/></g></g></g><g fill="#332766" fill-opacity="1"><g transform="translate(164.158369, 309.919256)"><g><path d="M 1.203125 -6.875 L 1.203125 -9.4375 L 3.578125 -9.4375 L 3.578125 -6.875 L 5.03125 -6.875 L 5.03125 -5.0625 L 3.578125 -5.0625 L 3.578125 -2.875 C 3.578125 -2.25 3.753906 -1.9375 4.109375 -1.9375 C 4.203125 -1.9375 4.296875 -1.953125 4.390625 -1.984375 C 4.492188 -2.015625 4.570312 -2.050781 4.625 -2.09375 L 4.703125 -2.140625 L 5.296875 -0.234375 C 4.785156 0.0546875 4.203125 0.203125 3.546875 0.203125 C 3.097656 0.203125 2.710938 0.125 2.390625 -0.03125 C 2.078125 -0.1875 1.835938 -0.394531 1.671875 -0.65625 C 1.503906 -0.925781 1.382812 -1.207031 1.3125 -1.5 C 1.238281 -1.789062 1.203125 -2.097656 1.203125 -2.421875 L 1.203125 -5.0625 L 0.21875 -5.0625 L 0.21875 -6.875 Z M 1.203125 -6.875 "/></g></g></g><g fill="#332766" fill-opacity="1"><g transform="translate(169.45516, 309.919256)"><g><path d="M 0.796875 0 L 0.796875 -11.53125 L 3.171875 -11.53125 L 3.171875 0 Z M 0.796875 0 "/></g></g></g><g fill="#332766" fill-opacity="1"><g transform="translate(173.43781, 309.919256)"><g><path d="M 7.765625 -3.109375 L 2.78125 -3.109375 C 2.78125 -2.628906 2.9375 -2.269531 3.25 -2.03125 C 3.5625 -1.800781 3.898438 -1.6875 4.265625 -1.6875 C 4.648438 -1.6875 4.953125 -1.738281 5.171875 -1.84375 C 5.398438 -1.945312 5.65625 -2.148438 5.9375 -2.453125 L 7.65625 -1.59375 C 6.9375 -0.394531 5.75 0.203125 4.09375 0.203125 C 3.050781 0.203125 2.160156 -0.148438 1.421875 -0.859375 C 0.679688 -1.578125 0.3125 -2.4375 0.3125 -3.4375 C 0.3125 -4.4375 0.679688 -5.289062 1.421875 -6 C 2.160156 -6.71875 3.050781 -7.078125 4.09375 -7.078125 C 5.175781 -7.078125 6.0625 -6.757812 6.75 -6.125 C 7.4375 -5.5 7.78125 -4.601562 7.78125 -3.4375 C 7.78125 -3.269531 7.773438 -3.160156 7.765625 -3.109375 Z M 2.84375 -4.421875 L 5.453125 -4.421875 C 5.398438 -4.773438 5.257812 -5.046875 5.03125 -5.234375 C 4.800781 -5.429688 4.507812 -5.53125 4.15625 -5.53125 C 3.757812 -5.53125 3.445312 -5.425781 3.21875 -5.21875 C 2.988281 -5.019531 2.863281 -4.753906 2.84375 -4.421875 Z M 2.84375 -4.421875 "/></g></g></g><g fill="#332766" fill-opacity="1"><g transform="translate(181.523807, 309.919256)"><g/></g></g><g fill="#332766" fill-opacity="1"><g transform="translate(185.184629, 309.919256)"><g><path d="M 0.796875 -11.0625 L 4.84375 -11.0625 C 5.96875 -11.0625 6.878906 -10.769531 7.578125 -10.1875 C 8.273438 -9.601562 8.625 -8.757812 8.625 -7.65625 C 8.625 -6.550781 8.269531 -5.679688 7.5625 -5.046875 C 6.851562 -4.421875 5.945312 -4.109375 4.84375 -4.109375 L 3.328125 -4.109375 L 3.328125 0 L 0.796875 0 Z M 3.328125 -6.109375 L 4.03125 -6.109375 C 4.59375 -6.109375 5.054688 -6.222656 5.421875 -6.453125 C 5.785156 -6.679688 5.96875 -7.054688 5.96875 -7.578125 C 5.96875 -8.097656 5.785156 -8.472656 5.421875 -8.703125 C 5.054688 -8.929688 4.59375 -9.046875 4.03125 -9.046875 L 3.328125 -9.046875 Z M 3.328125 -6.109375 "/></g></g></g><g fill="#332766" fill-opacity="1"><g transform="translate(194.115423, 309.919256)"><g><path d="M 0.796875 0 L 0.796875 -6.875 L 3.171875 -6.875 L 3.171875 -5.890625 L 3.203125 -5.890625 C 3.222656 -5.921875 3.253906 -5.960938 3.296875 -6.015625 C 3.335938 -6.066406 3.421875 -6.160156 3.546875 -6.296875 C 3.679688 -6.429688 3.820312 -6.550781 3.96875 -6.65625 C 4.125 -6.769531 4.320312 -6.867188 4.5625 -6.953125 C 4.8125 -7.035156 5.0625 -7.078125 5.3125 -7.078125 C 5.570312 -7.078125 5.828125 -7.039062 6.078125 -6.96875 C 6.328125 -6.894531 6.507812 -6.820312 6.625 -6.75 L 6.8125 -6.65625 L 5.8125 -4.640625 C 5.519531 -4.890625 5.109375 -5.015625 4.578125 -5.015625 C 4.296875 -5.015625 4.050781 -4.953125 3.84375 -4.828125 C 3.644531 -4.703125 3.5 -4.550781 3.40625 -4.375 C 3.320312 -4.195312 3.257812 -4.046875 3.21875 -3.921875 C 3.1875 -3.796875 3.171875 -3.695312 3.171875 -3.625 L 3.171875 0 Z M 0.796875 0 "/></g></g></g><g fill="#332766" fill-opacity="1"><g transform="translate(200.7934, 309.919256)"><g><path d="M 1.453125 -0.8125 C 0.691406 -1.5 0.3125 -2.375 0.3125 -3.4375 C 0.3125 -4.5 0.707031 -5.367188 1.5 -6.046875 C 2.289062 -6.734375 3.273438 -7.078125 4.453125 -7.078125 C 5.609375 -7.078125 6.578125 -6.734375 7.359375 -6.046875 C 8.148438 -5.359375 8.546875 -4.484375 8.546875 -3.421875 C 8.546875 -2.367188 8.160156 -1.5 7.390625 -0.8125 C 6.617188 -0.132812 5.640625 0.203125 4.453125 0.203125 C 3.210938 0.203125 2.210938 -0.132812 1.453125 -0.8125 Z M 3.28125 -4.59375 C 2.976562 -4.289062 2.828125 -3.898438 2.828125 -3.421875 C 2.828125 -2.953125 2.972656 -2.566406 3.265625 -2.265625 C 3.566406 -1.972656 3.957031 -1.828125 4.4375 -1.828125 C 4.90625 -1.828125 5.285156 -1.976562 5.578125 -2.28125 C 5.878906 -2.582031 6.03125 -2.96875 6.03125 -3.4375 C 6.03125 -3.90625 5.875 -4.289062 5.5625 -4.59375 C 5.257812 -4.894531 4.882812 -5.046875 4.4375 -5.046875 C 3.976562 -5.046875 3.59375 -4.894531 3.28125 -4.59375 Z M 3.28125 -4.59375 "/></g></g></g><g fill="#332766" fill-opacity="1"><g transform="translate(209.657151, 309.919256)"><g><path d="M 1.03125 -10.703125 C 1.3125 -10.984375 1.640625 -11.125 2.015625 -11.125 C 2.398438 -11.125 2.734375 -10.984375 3.015625 -10.703125 C 3.296875 -10.429688 3.4375 -10.101562 3.4375 -9.71875 C 3.4375 -9.332031 3.296875 -9 3.015625 -8.71875 C 2.734375 -8.445312 2.398438 -8.3125 2.015625 -8.3125 C 1.640625 -8.3125 1.3125 -8.445312 1.03125 -8.71875 C 0.75 -9 0.609375 -9.332031 0.609375 -9.71875 C 0.609375 -10.101562 0.75 -10.429688 1.03125 -10.703125 Z M 0.796875 -6.875 L 0.796875 0.609375 C 0.796875 1.234375 0.578125 1.546875 0.140625 1.546875 C 0.0546875 1.546875 -0.03125 1.53125 -0.125 1.5 C -0.226562 1.46875 -0.3125 1.429688 -0.375 1.390625 L -0.453125 1.34375 L -1.1875 3.25 C -1.175781 3.257812 -1.117188 3.285156 -1.015625 3.328125 C -0.921875 3.378906 -0.847656 3.414062 -0.796875 3.4375 C -0.742188 3.457031 -0.660156 3.484375 -0.546875 3.515625 C -0.429688 3.554688 -0.316406 3.585938 -0.203125 3.609375 C -0.0976562 3.628906 0.03125 3.644531 0.1875 3.65625 C 0.34375 3.675781 0.515625 3.6875 0.703125 3.6875 C 1.148438 3.6875 1.539062 3.609375 1.875 3.453125 C 2.21875 3.296875 2.476562 3.082031 2.65625 2.8125 C 2.832031 2.550781 2.960938 2.273438 3.046875 1.984375 C 3.128906 1.703125 3.171875 1.394531 3.171875 1.0625 L 3.171875 -6.875 Z M 0.796875 -6.875 "/></g></g></g><g fill="#332766" fill-opacity="1"><g transform="translate(213.6398, 309.919256)"><g><path d="M 7.765625 -3.109375 L 2.78125 -3.109375 C 2.78125 -2.628906 2.9375 -2.269531 3.25 -2.03125 C 3.5625 -1.800781 3.898438 -1.6875 4.265625 -1.6875 C 4.648438 -1.6875 4.953125 -1.738281 5.171875 -1.84375 C 5.398438 -1.945312 5.65625 -2.148438 5.9375 -2.453125 L 7.65625 -1.59375 C 6.9375 -0.394531 5.75 0.203125 4.09375 0.203125 C 3.050781 0.203125 2.160156 -0.148438 1.421875 -0.859375 C 0.679688 -1.578125 0.3125 -2.4375 0.3125 -3.4375 C 0.3125 -4.4375 0.679688 -5.289062 1.421875 -6 C 2.160156 -6.71875 3.050781 -7.078125 4.09375 -7.078125 C 5.175781 -7.078125 6.0625 -6.757812 6.75 -6.125 C 7.4375 -5.5 7.78125 -4.601562 7.78125 -3.4375 C 7.78125 -3.269531 7.773438 -3.160156 7.765625 -3.109375 Z M 2.84375 -4.421875 L 5.453125 -4.421875 C 5.398438 -4.773438 5.257812 -5.046875 5.03125 -5.234375 C 4.800781 -5.429688 4.507812 -5.53125 4.15625 -5.53125 C 3.757812 -5.53125 3.445312 -5.425781 3.21875 -5.21875 C 2.988281 -5.019531 2.863281 -4.753906 2.84375 -4.421875 Z M 2.84375 -4.421875 "/></g></g></g><g fill="#332766" fill-opacity="1"><g transform="translate(221.725797, 309.919256)"><g><path d="M 4.46875 -5.140625 C 4.019531 -5.140625 3.632812 -4.972656 3.3125 -4.640625 C 2.988281 -4.304688 2.828125 -3.910156 2.828125 -3.453125 C 2.828125 -2.972656 2.988281 -2.566406 3.3125 -2.234375 C 3.632812 -1.910156 4.019531 -1.75 4.46875 -1.75 C 4.675781 -1.75 4.875 -1.773438 5.0625 -1.828125 C 5.257812 -1.878906 5.40625 -1.929688 5.5 -1.984375 L 5.625 -2.0625 L 6.421875 -0.421875 C 6.359375 -0.367188 6.269531 -0.304688 6.15625 -0.234375 C 6.050781 -0.171875 5.796875 -0.0820312 5.390625 0.03125 C 4.992188 0.144531 4.566406 0.203125 4.109375 0.203125 C 3.097656 0.203125 2.210938 -0.148438 1.453125 -0.859375 C 0.691406 -1.578125 0.3125 -2.429688 0.3125 -3.421875 C 0.3125 -4.421875 0.691406 -5.28125 1.453125 -6 C 2.210938 -6.71875 3.097656 -7.078125 4.109375 -7.078125 C 4.566406 -7.078125 4.988281 -7.019531 5.375 -6.90625 C 5.757812 -6.800781 6.03125 -6.695312 6.1875 -6.59375 L 6.421875 -6.4375 L 5.625 -4.8125 C 5.320312 -5.03125 4.9375 -5.140625 4.46875 -5.140625 Z M 4.46875 -5.140625 "/></g></g></g><g fill="#332766" fill-opacity="1"><g transform="translate(228.30991, 309.919256)"><g><path d="M 1.203125 -6.875 L 1.203125 -9.4375 L 3.578125 -9.4375 L 3.578125 -6.875 L 5.03125 -6.875 L 5.03125 -5.0625 L 3.578125 -5.0625 L 3.578125 -2.875 C 3.578125 -2.25 3.753906 -1.9375 4.109375 -1.9375 C 4.203125 -1.9375 4.296875 -1.953125 4.390625 -1.984375 C 4.492188 -2.015625 4.570312 -2.050781 4.625 -2.09375 L 4.703125 -2.140625 L 5.296875 -0.234375 C 4.785156 0.0546875 4.203125 0.203125 3.546875 0.203125 C 3.097656 0.203125 2.710938 0.125 2.390625 -0.03125 C 2.078125 -0.1875 1.835938 -0.394531 1.671875 -0.65625 C 1.503906 -0.925781 1.382812 -1.207031 1.3125 -1.5 C 1.238281 -1.789062 1.203125 -2.097656 1.203125 -2.421875 L 1.203125 -5.0625 L 0.21875 -5.0625 L 0.21875 -6.875 Z M 1.203125 -6.875 "/></g></g></g><g fill="#332766" fill-opacity="1"><g transform="translate(233.606702, 309.919256)"><g><path d="M 2.328125 -2.875 C 2.753906 -2.875 3.117188 -2.722656 3.421875 -2.421875 C 3.722656 -2.117188 3.875 -1.753906 3.875 -1.328125 C 3.875 -0.910156 3.722656 -0.550781 3.421875 -0.25 C 3.117188 0.0507812 2.753906 0.203125 2.328125 0.203125 C 1.910156 0.203125 1.550781 0.0507812 1.25 -0.25 C 0.945312 -0.550781 0.796875 -0.910156 0.796875 -1.328125 C 0.796875 -1.753906 0.945312 -2.117188 1.25 -2.421875 C 1.550781 -2.722656 1.910156 -2.875 2.328125 -2.875 Z M 2.328125 -2.875 "/></g></g></g><g fill="#332766" fill-opacity="1"><g transform="translate(238.279322, 309.919256)"><g/></g></g></svg>